<svg width="1200" height="630" viewBox="0 0 1200 630" fill="none" xmlns="http://www.w3.org/2000/svg">
<g clip-path="url(#clip0_1_2)">
<rect width="1200" height="630" fill="#1C1C27"/>
<g filter="url(#filter0_f_1_2)">
<circle cx="850" cy="38" r="200" fill="#FF8ED4" fill-opacity="0.4"/>
</g>
<g filter="url(#filter1_f_1_2)">
<circle cx="350" cy="95" r="175" fill="#8E99FF" fill-opacity="0.4"/>
</g>
<g filter="url(#filter2_f_1_2)">
<circle cx="166" cy="485" r="125" fill="#8E99FF" fill-opacity="0.4"/>
</g>
<g filter="url(#filter3_f_1_2)">
<circle cx="675" cy="559" r="150" fill="#8EFFD9" fill-opacity="0.6"/>
</g>
<g filter="url(#filter4_f_1_2)">
<circle cx="1022" cy="526" r="150" fill="#F4FF8E" fill-opacity="0.4"/>
</g>
<path opacity="0.2" d="M324.188 294.689L339.496 303.53L315.45 309.875L312.836 300.266C312.752 299.948 312.731 299.617 312.775 299.291C312.819 298.965 312.927 298.651 313.094 298.368C313.26 298.084 313.481 297.836 313.743 297.639C314.006 297.441 314.305 297.297 314.624 297.216L324.188 294.689ZM366.511 286.095C366.331 285.454 365.905 284.909 365.326 284.58C364.746 284.251 364.06 284.163 363.417 284.336L343.055 289.711L358.362 298.549L369.125 295.708L366.511 286.095Z" fill="#FF4AB0"/>
<path d="M371.688 307.312H335.201L369.766 298.187C370.093 298.101 370.4 297.95 370.669 297.745C370.937 297.54 371.163 297.283 371.332 296.99C371.501 296.697 371.611 296.373 371.654 296.038C371.697 295.702 371.674 295.361 371.585 295.035L368.971 285.426C368.612 284.133 367.757 283.034 366.593 282.366C365.428 281.699 364.048 281.517 362.751 281.86L313.97 294.737C313.321 294.906 312.712 295.202 312.178 295.609C311.645 296.016 311.198 296.525 310.863 297.107C310.527 297.682 310.31 298.319 310.225 298.979C310.14 299.639 310.188 300.31 310.367 300.951L312.75 309.734C312.75 309.779 312.75 309.827 312.75 309.875V338.062C312.75 339.422 313.29 340.725 314.251 341.686C315.212 342.648 316.516 343.187 317.875 343.187H369.125C370.484 343.187 371.788 342.648 372.749 341.686C373.71 340.725 374.25 339.422 374.25 338.062V309.875C374.25 309.195 373.98 308.544 373.499 308.063C373.019 307.582 372.367 307.312 371.688 307.312ZM364.051 286.812L365.973 293.882L358.728 295.804L349.72 290.602L364.051 286.812ZM342.69 292.45L351.697 297.652L339.864 300.775L330.857 295.579L342.69 292.45ZM317.257 306.742L315.335 299.67L323.823 297.428L332.83 302.636L317.257 306.742ZM369.125 338.062H317.875V312.437H369.125V338.062Z" fill="#FF4AB0"/>
<path d="M425.104 343.78C420.944 343.78 417.07 343.104 413.482 341.752C409.946 340.348 406.852 338.398 404.2 335.902C401.6 333.354 399.572 330.364 398.116 326.932C396.66 323.5 395.932 319.756 395.932 315.7C395.932 311.644 396.66 307.9 398.116 304.468C399.572 301.036 401.626 298.072 404.278 295.576C406.93 293.028 410.024 291.078 413.56 289.726C417.096 288.322 420.97 287.62 425.182 287.62C429.654 287.62 433.736 288.4 437.428 289.96C441.12 291.468 444.24 293.73 446.788 296.746L440.236 302.908C438.26 300.776 436.05 299.19 433.606 298.15C431.162 297.058 428.51 296.512 425.65 296.512C422.79 296.512 420.164 296.98 417.772 297.916C415.432 298.852 413.378 300.178 411.61 301.894C409.894 303.61 408.542 305.638 407.554 307.978C406.618 310.318 406.15 312.892 406.15 315.7C406.15 318.508 406.618 321.082 407.554 323.422C408.542 325.762 409.894 327.79 411.61 329.506C413.378 331.222 415.432 332.548 417.772 333.484C420.164 334.42 422.79 334.888 425.65 334.888C428.51 334.888 431.162 334.368 433.606 333.328C436.05 332.236 438.26 330.598 440.236 328.414L446.788 334.654C444.24 337.618 441.12 339.88 437.428 341.44C433.736 343 429.628 343.78 425.104 343.78ZM456.504 343V288.4H466.644V343H456.504ZM481.412 343V288.4H489.758L524 330.442H519.866V288.4H529.928V343H521.582L487.34 300.958H491.474V343H481.412ZM553.919 311.098H581.063V319.444H553.919V311.098ZM554.699 334.498H585.509V343H544.559V288.4H584.417V296.902H554.699V334.498ZM596.812 343V288.4H605.158L629.026 328.258H624.658L648.136 288.4H656.482L656.56 343H646.966L646.888 303.454H648.916L628.948 336.76H624.424L604.144 303.454H606.484V343H596.812ZM663.587 343L688.157 288.4H698.141L722.789 343H712.181L691.043 293.782H695.099L674.039 343H663.587ZM674.897 330.364L677.627 322.408H707.111L709.841 330.364H674.897ZM739.014 313.516H766.236V322.096H739.014V313.516ZM739.872 343H729.732V288.4H769.59V296.902H739.872V343ZM802.874 343.78C795.386 343.78 789.51 341.674 785.246 337.462C781.034 333.25 778.928 327.166 778.928 319.21V288.4H789.068V318.82C789.068 324.436 790.264 328.518 792.656 331.066C795.1 333.614 798.532 334.888 802.952 334.888C807.372 334.888 810.778 333.614 813.17 331.066C815.562 328.518 816.758 324.436 816.758 318.82V288.4H826.742V319.21C826.742 327.166 824.61 333.25 820.346 337.462C816.134 341.674 810.31 343.78 802.874 343.78ZM840.943 343V288.4H849.289L883.531 330.442H879.397V288.4H889.459V343H881.113L846.871 300.958H851.005V343H840.943Z" fill="#FF4AB0"/>
</g>
<defs>
<filter id="filter0_f_1_2" x="350" y="-462" width="1000" height="1000" filterUnits="userSpaceOnUse" color-interpolation-filters="sRGB">
<feFlood flood-opacity="0" result="BackgroundImageFix"/>
<feBlend mode="normal" in="SourceGraphic" in2="BackgroundImageFix" result="shape"/>
<feGaussianBlur stdDeviation="150" result="effect1_foregroundBlur_1_2"/>
</filter>
<filter id="filter1_f_1_2" x="-125" y="-380" width="950" height="950" filterUnits="userSpaceOnUse" color-interpolation-filters="sRGB">
<feFlood flood-opacity="0" result="BackgroundImageFix"/>
<feBlend mode="normal" in="SourceGraphic" in2="BackgroundImageFix" result="shape"/>
<feGaussianBlur stdDeviation="150" result="effect1_foregroundBlur_1_2"/>
</filter>
<filter id="filter2_f_1_2" x="-259" y="60" width="850" height="850" filterUnits="userSpaceOnUse" color-interpolation-filters="sRGB">
<feFlood flood-opacity="0" result="BackgroundImageFix"/>
<feBlend mode="normal" in="SourceGraphic" in2="BackgroundImageFix" result="shape"/>
<feGaussianBlur stdDeviation="150" result="effect1_foregroundBlur_1_2"/>
</filter>
<filter id="filter3_f_1_2" x="225" y="109" width="900" height="900" filterUnits="userSpaceOnUse" color-interpolation-filters="sRGB">
<feFlood flood-opacity="0" result="BackgroundImageFix"/>
<feBlend mode="normal" in="SourceGraphic" in2="BackgroundImageFix" result="shape"/>
<feGaussianBlur stdDeviation="150" result="effect1_foregroundBlur_1_2"/>
</filter>
<filter id="filter4_f_1_2" x="572" y="76" width="900" height="900" filterUnits="userSpaceOnUse" color-interpolation-filters="sRGB">
<feFlood flood-opacity="0" result="BackgroundImageFix"/>
<feBlend mode="normal" in="SourceGraphic" in2="BackgroundImageFix" result="shape"/>
<feGaussianBlur stdDeviation="150" result="effect1_foregroundBlur_1_2"/>
</filter>
<clipPath id="clip0_1_2">
<rect width="1200" height="630" fill="white"/>
</clipPath>
</defs>
</svg>
